<svg width="280" height="166" viewBox="0 0 280 166" fill="none" xmlns="http://www.w3.org/2000/svg">
<path d="M39.28 2.87191C40.0892 2.90873 40.4938 3.16647 40.4938 3.64512C40.4938 4.19741 40.0524 4.82334 39.1697 5.52291C38.3238 6.18566 37.5698 6.51704 36.9077 6.51704C33.7446 6.51704 30.2321 6.60909 26.3702 6.79318C23.2439 19.3486 21.0739 30.9835 19.8602 41.698C20.3751 41.7348 20.7981 41.8637 21.1291 42.0846C21.4969 42.2687 21.6808 42.5264 21.6808 42.8578C21.6808 43.2996 21.3498 43.7783 20.6877 44.2938L18.5361 45.9506C18.2786 46.2084 17.7821 46.4477 17.0465 46.6686C16.3477 46.8895 15.6856 47 15.0604 47C13.9202 47 13.4053 46.5398 13.5156 45.6193C14.8029 33.5057 17.1568 20.7662 20.5774 7.4007L20.5222 7.17979C16.3293 7.54798 12.4122 7.953 8.77096 8.39483C8.21926 8.46847 7.7779 8.39483 7.44688 8.17391C7.11586 7.91618 6.96874 7.52957 7.00552 7.0141C7.0423 6.49863 7.35493 6.0752 7.94341 5.74383C8.56867 5.41245 9.23071 5.15472 9.92953 4.97062C13.4604 3.93968 17.3959 3.24011 21.7359 2.87191L22.067 1.93302C22.2141 1.41755 22.729 0.975713 23.6117 0.607519C24.4945 0.202506 25.3588 0 26.2047 0C26.7564 0 27.1794 0.110458 27.4736 0.331374C27.8047 0.55229 27.915 0.865255 27.8047 1.27027L27.4736 2.54054L30.0666 2.48531C32.7516 2.48531 35.8227 2.61418 39.28 2.87191Z" fill="white"/>
<path d="M51.8597 26.6757C51.8597 22.7728 49.5793 19.6984 45.0186 17.4524C43.8784 18.4097 42.7382 19.68 41.5981 21.2632C40.2004 23.2883 39.0418 25.5527 38.1223 28.0564C37.7545 29.0505 37.4051 30.4128 37.0741 32.1434C36.7431 33.8371 36.5776 35.4203 36.5776 36.8931C36.5776 38.4027 36.7799 39.6177 37.1844 40.5382C37.6258 41.4219 38.3246 41.8637 39.2809 41.8637C40.0533 41.8637 40.9544 41.5507 41.9842 40.9248C44.8163 39.2679 47.1702 37.206 49.046 34.7391C50.9218 32.2722 51.8597 29.5844 51.8597 26.6757ZM53.4045 16.6792C54.7285 17.9311 55.74 19.3486 56.4388 20.9318C57.1744 22.5151 57.5422 24.1904 57.5422 25.9577C57.5422 28.4982 56.8066 31.0756 55.3354 33.6898C54.3424 35.4571 52.8895 37.3165 50.977 39.2679C49.0644 41.2193 46.9312 42.8762 44.5772 44.2385C42.2601 45.564 40.0349 46.2268 37.9017 46.2268C36.5776 46.2268 35.3271 45.9322 34.1501 45.3431C31.649 43.9808 30.3985 41.5323 30.3985 37.9976C30.3985 35.4571 30.9686 32.6772 32.1088 29.658C33.249 26.602 34.4627 24.0247 35.75 21.926C38.8763 16.9553 42.1681 13.8257 45.6255 12.537C46.5818 12.1688 47.6116 11.9847 48.715 11.9847C50.0023 11.9847 51.0873 12.3161 51.97 12.9788C52.8528 13.6048 53.3677 14.5989 53.5148 15.9612V16.1821C53.5148 16.2926 53.478 16.4583 53.4045 16.6792Z" fill="white"/>
<path d="M93.608 9.94124C93.7919 9.42577 94.27 8.98394 95.0424 8.61574C95.8148 8.21073 96.5872 8.00822 97.3595 8.00822C98.4629 8.00822 99.0146 8.39483 99.0146 9.16804C99.0146 9.27849 98.9779 9.481 98.9043 9.77556C97.3228 15.1512 95.9251 19.2566 94.7114 22.0917C94.4907 22.6439 93.9758 23.1226 93.1666 23.5276C92.3942 23.8958 91.6218 24.0799 90.8495 24.0799C89.93 24.0799 89.3967 23.7669 89.2495 23.141C88.5875 20.1955 87.5577 18.7227 86.16 18.7227C85.498 18.7227 84.7624 19.0725 83.9532 19.772C82.1878 21.3921 80.7901 23.5828 79.7603 26.3443C78.7672 29.1058 78.2707 31.7383 78.2707 34.2421C78.2707 36.083 78.5833 37.7399 79.2086 39.2127C79.8338 40.6486 80.8821 41.5507 82.3533 41.9189C82.5739 41.9926 82.9234 42.0294 83.4015 42.0294C84.6152 42.0294 85.8106 41.5875 86.9876 40.7039C88.2013 39.7834 89.1944 38.8445 89.9667 37.8872C90.7391 36.8931 91.7322 35.5492 92.9459 33.8555C93.2402 33.4504 93.6999 33.1375 94.3252 32.9166C94.9505 32.6588 95.5757 32.53 96.201 32.53C96.7895 32.53 97.2492 32.6404 97.5802 32.8613C97.948 33.0454 98.1319 33.34 98.1319 33.745C98.1319 34.1132 98.0032 34.4998 97.7457 34.9048C95.7964 37.9608 93.4241 40.6118 90.6288 42.8578C87.8335 45.067 84.8911 46.1716 81.8016 46.1716C81.1763 46.1716 80.551 46.1163 79.9258 46.0059C77.4615 45.6009 75.6225 44.4042 74.4088 42.416C73.195 40.3909 72.5882 38.0529 72.5882 35.4019C72.5882 34.4446 72.6801 33.4136 72.864 32.309C73.4525 28.7744 74.6294 25.479 76.3949 22.423C78.1603 19.3302 80.4775 17.0658 83.3463 15.6298C84.7808 14.9303 86.2152 14.5805 87.6496 14.5805C89.0105 14.5805 90.261 14.9487 91.4012 15.6851L93.608 9.94124Z" fill="white"/>
<path d="M120.122 26.6757C120.122 22.7728 117.842 19.6984 113.281 17.4524C112.141 18.4097 111.001 19.68 109.86 21.2632C108.463 23.2883 107.304 25.5527 106.385 28.0564C106.017 29.0505 105.667 30.4128 105.336 32.1434C105.005 33.8371 104.84 35.4203 104.84 36.8931C104.84 38.4027 105.042 39.6177 105.447 40.5382C105.888 41.4219 106.587 41.8637 107.543 41.8637C108.316 41.8637 109.217 41.5507 110.247 40.9248C113.079 39.2679 115.433 37.206 117.308 34.7391C119.184 32.2722 120.122 29.5844 120.122 26.6757ZM121.667 16.6792C122.991 17.9311 124.002 19.3486 124.701 20.9318C125.437 22.5151 125.804 24.1904 125.804 25.9577C125.804 28.4982 125.069 31.0756 123.598 33.6898C122.605 35.4571 121.152 37.3165 119.239 39.2679C117.327 41.2193 115.193 42.8762 112.84 44.2385C110.522 45.564 108.297 46.2268 106.164 46.2268C104.84 46.2268 103.589 45.9322 102.412 45.3431C99.9113 43.9808 98.6608 41.5323 98.6608 37.9976C98.6608 35.4571 99.2309 32.6772 100.371 29.658C101.511 26.602 102.725 24.0247 104.012 21.926C107.139 16.9553 110.43 13.8257 113.888 12.537C114.844 12.1688 115.874 11.9847 116.977 11.9847C118.265 11.9847 119.35 12.3161 120.232 12.9788C121.115 13.6048 121.63 14.5989 121.777 15.9612V16.1821C121.777 16.2926 121.74 16.4583 121.667 16.6792Z" fill="white"/>
<path d="M157.697 11.9847C157.513 15.8508 157.421 19.3118 157.421 22.3678C157.421 29.9526 157.936 36.709 158.966 42.6369C159.113 43.4837 158.782 44.2201 157.973 44.8461C157.164 45.4352 156.281 45.7297 155.325 45.7297C154.773 45.7297 154.313 45.6009 153.946 45.3431C153.578 45.0854 153.357 44.6988 153.284 44.1833C152.327 37.0403 151.776 30.376 151.628 24.1904C149.863 28.3878 147.748 34.2789 145.284 41.8637C145.247 42.011 145.137 42.2135 144.953 42.4712C144.622 42.913 144.125 43.2628 143.463 43.5206C142.801 43.7783 142.139 43.9072 141.477 43.9072C140.962 43.9072 140.558 43.8335 140.263 43.6863C139.785 43.4285 139.546 43.0787 139.546 42.6369C139.546 42.5264 139.583 42.3239 139.657 42.0294C139.693 41.6244 139.712 41.0352 139.712 40.262C139.712 38.9734 139.601 37.114 139.381 34.6839L139.16 31.7015C139.013 28.0932 138.884 25.387 138.774 23.5828C137.008 26.823 135.611 29.2162 134.581 30.7626C133.698 35.4387 132.227 39.9675 130.167 44.349C129.91 44.8645 129.358 45.3063 128.512 45.6745C127.666 46.0427 126.839 46.2268 126.029 46.2268C125.515 46.2268 125.092 46.1347 124.761 45.9506C124.466 45.7665 124.319 45.5088 124.319 45.1774C124.319 44.9565 124.374 44.7172 124.485 44.4595C126.177 40.7775 127.464 37.0035 128.347 33.1375C128.2 32.9902 128.126 32.7877 128.126 32.53C128.126 32.1618 128.273 31.7752 128.567 31.3702L128.788 30.9835C129.376 28.038 129.671 24.9083 129.671 21.5946C129.671 20.1955 129.616 18.8147 129.505 17.4524C129.468 16.8265 129.891 16.2558 130.774 15.7403C131.657 15.2248 132.558 14.9671 133.477 14.9671C133.992 14.9671 134.415 15.0776 134.746 15.2985C135.077 15.5194 135.261 15.8324 135.298 16.2374C135.372 16.9001 135.445 17.9679 135.519 19.4407C136.365 17.8942 137.266 16.4399 138.222 15.0776C138.296 14.4516 138.737 13.9177 139.546 13.4759C140.355 12.9973 141.201 12.7579 142.084 12.7579C142.636 12.7579 143.095 12.8868 143.463 13.1445C143.868 13.3655 144.089 13.7336 144.125 14.2491C144.493 18.9988 144.751 23.2331 144.898 26.9518C147.362 20.9134 149.808 15.9244 152.235 11.9847C152.493 11.5797 152.989 11.2115 153.725 10.8801C154.461 10.5488 155.178 10.3831 155.877 10.3831C156.428 10.3831 156.87 10.5119 157.201 10.7697C157.568 11.0274 157.734 11.4324 157.697 11.9847Z" fill="white"/>
<path d="M78.7506 51.0131C81.581 51.0131 82.9963 51.786 82.9963 53.3319C82.9963 54.6959 81.9463 56.1509 79.8462 57.6968C77.7462 59.2426 75.7375 60.0611 73.8201 60.152C61.6765 60.4248 50.4917 61.9707 40.2655 64.7897C36.6133 76.5202 33.2807 89.0238 30.2676 102.3C38.0285 100.754 45.6525 99.9814 53.1395 99.9814C56.3352 99.9814 59.5765 100.118 62.8635 100.391C64.7809 100.482 65.7396 101.118 65.7396 102.3C65.7396 103.664 64.5983 105.256 62.3157 107.074C60.033 108.802 58.07 109.62 56.4265 109.53C55.0569 109.439 53.0026 109.393 50.2634 109.393C43.4155 109.393 36.0198 110.212 28.0763 111.848C24.4241 127.944 21.4567 143.812 19.1741 159.453C18.9001 161.18 17.5306 162.726 15.0653 164.09C12.6001 165.363 10.1805 166 7.80658 166C6.437 166 5.34134 165.727 4.5196 165.182C3.78916 164.636 3.51524 163.818 3.69785 162.726C6.52831 144.903 9.40442 129.353 12.3262 116.077L7.66962 117.714C6.02613 118.259 4.65656 118.532 3.5609 118.532C2.46524 118.532 1.59784 118.305 0.958703 117.85C0.319568 117.395 0 116.759 0 115.94C0 115.031 0.456525 114.076 1.36958 113.076C2.28263 112.076 3.60655 111.166 5.34134 110.348C8.53702 108.893 11.5957 107.665 14.5175 106.665C17.6219 93.2068 21.0002 80.976 24.6524 69.9729C23.3741 70.3367 22.461 70.5186 21.9132 70.5186C20.6349 70.5186 19.5393 70.2003 18.6262 69.5637C17.7132 68.9272 17.2566 68.1543 17.2566 67.2449C17.2566 65.6081 18.5349 64.1986 21.0915 63.0164C38.3481 54.7414 57.5678 50.7403 78.7506 51.0131Z" fill="#EB5B5B"/>
<path d="M117.427 116.213C117.427 106.574 111.766 98.9811 100.444 93.4341C97.614 95.7984 94.7835 98.9357 91.9531 102.846C88.4835 107.847 85.6074 113.44 83.3247 119.623C82.4117 122.079 81.5443 125.443 80.7226 129.717C79.9008 133.9 79.4899 137.81 79.4899 141.448C79.4899 145.176 79.9921 148.177 80.9965 150.45C82.0921 152.633 83.8269 153.724 86.2008 153.724C88.1183 153.724 90.3552 152.951 92.9118 151.405C99.9423 147.313 105.786 142.221 110.442 136.128C115.099 130.035 117.427 123.397 117.427 116.213ZM121.262 91.5245C124.549 94.6162 127.06 98.1172 128.795 102.027C130.621 105.938 131.534 110.075 131.534 114.44C131.534 120.715 129.708 127.08 126.055 133.536C123.59 137.901 119.984 142.493 115.236 147.313C110.488 152.132 105.192 156.225 99.3488 159.589C93.5966 162.863 88.0726 164.5 82.7769 164.5C79.4899 164.5 76.3856 163.772 73.4638 162.317C67.2551 158.953 64.1507 152.905 64.1507 144.176C64.1507 137.901 65.5659 131.036 68.3964 123.579C71.2268 116.031 74.2399 109.666 77.4356 104.483C85.1965 92.2065 93.3683 84.477 101.951 81.2943C104.325 80.385 106.881 79.9303 109.621 79.9303C112.816 79.9303 115.51 80.7487 117.701 82.3855C119.892 83.9314 121.171 86.3867 121.536 89.7512V90.2969C121.536 90.5697 121.445 90.9789 121.262 91.5245Z" fill="#EB5B5B"/>
<path d="M210.706 79.9303C210.249 89.4784 210.021 98.0263 210.021 105.574C210.021 124.306 211.299 140.993 213.856 155.633C214.221 157.725 213.399 159.544 211.391 161.09C209.382 162.544 207.191 163.272 204.817 163.272C203.447 163.272 202.306 162.954 201.393 162.317C200.48 161.681 199.932 160.726 199.749 159.453C197.375 141.811 196.006 125.352 195.641 110.075C191.258 120.442 186.008 134.991 179.89 153.724C179.799 154.088 179.525 154.588 179.069 155.224C178.247 156.315 177.014 157.179 175.371 157.816C173.727 158.452 172.084 158.771 170.44 158.771C169.162 158.771 168.158 158.589 167.427 158.225C166.24 157.589 165.647 156.725 165.647 155.633C165.647 155.361 165.738 154.86 165.921 154.133C166.012 153.133 166.058 151.678 166.058 149.768C166.058 146.585 165.784 141.993 165.236 135.992L164.688 128.626C164.323 119.714 164.003 113.031 163.73 108.575C159.347 116.577 155.877 122.488 153.321 126.307C151.129 137.856 147.477 149.041 142.364 159.862C141.725 161.135 140.355 162.226 138.255 163.136C136.155 164.045 134.101 164.5 132.092 164.5C130.814 164.5 129.764 164.272 128.942 163.818C128.212 163.363 127.847 162.726 127.847 161.908C127.847 161.362 127.984 160.771 128.258 160.135C132.458 151.041 135.653 141.72 137.845 132.172C137.479 131.809 137.297 131.308 137.297 130.672C137.297 129.763 137.662 128.808 138.392 127.807L138.94 126.853C140.401 119.578 141.132 111.848 141.132 103.664C141.132 100.209 140.995 96.7987 140.721 93.4341C140.629 91.8882 141.679 90.4787 143.871 89.2056C146.062 87.9325 148.299 87.296 150.582 87.296C151.86 87.296 152.91 87.5688 153.732 88.1144C154.553 88.66 155.01 89.433 155.101 90.4333C155.284 92.0701 155.466 94.7072 155.649 98.3446C157.749 94.5253 159.986 90.9334 162.36 87.5688C162.543 86.0229 163.638 84.7044 165.647 83.6132C167.656 82.431 169.756 81.8399 171.947 81.8399C173.317 81.8399 174.458 82.1582 175.371 82.7947C176.375 83.3404 176.923 84.2497 177.014 85.5228C177.927 97.2534 178.567 107.711 178.932 116.895C185.049 101.982 191.121 89.6603 197.147 79.9303C197.786 78.93 199.019 78.0207 200.845 77.2023C202.671 76.3838 204.452 75.9746 206.186 75.9746C207.556 75.9746 208.652 76.2929 209.473 76.9295C210.386 77.566 210.797 78.5663 210.706 79.9303Z" fill="#EB5B5B"/>
<path d="M250.554 90.4333C245.898 93.9797 242.108 99.7086 239.187 107.62C248.135 104.255 256.215 101.436 263.428 99.163C260.415 94.98 257.356 92.161 254.252 90.7061C253.613 90.4333 252.974 90.2514 252.335 90.1605C251.787 90.0695 251.467 90.0241 251.376 90.0241C251.467 90.115 251.376 90.2059 251.102 90.2969C250.919 90.3878 250.737 90.4333 250.554 90.4333ZM251.102 80.7487C252.563 80.385 254.115 80.2031 255.759 80.2031C264.524 80.2031 272.467 86.0684 279.589 97.799C279.863 98.1627 280 98.6174 280 99.163C280 100.163 279.361 101.209 278.083 102.3C277.078 103.391 275.8 104.255 274.248 104.892C265.117 108.893 252.426 113.667 236.174 119.214C235.261 123.852 234.804 128.626 234.804 133.536C234.804 135.81 234.85 137.446 234.941 138.447C235.124 142.539 235.945 146.085 237.406 149.086C237.863 150.086 238.502 151.041 239.324 151.951C240.237 152.86 240.921 153.451 241.378 153.724C241.652 153.906 242.108 153.997 242.748 153.997C243.387 153.997 244.117 153.815 244.939 153.451C245.852 153.087 246.856 152.587 247.952 151.951C250.6 150.405 253.065 148.631 255.348 146.631C257.63 144.63 260.369 142.039 263.565 138.856C264.843 137.583 266.989 136.946 270.002 136.946C271.646 136.946 273.015 137.219 274.111 137.765C275.298 138.219 275.891 138.901 275.891 139.811C275.891 140.629 275.435 141.539 274.522 142.539C268.861 148.631 263.063 153.815 257.128 158.089C251.193 162.363 245.258 164.5 239.324 164.5C236.493 164.5 233.845 163.909 231.38 162.726C227.271 160.817 224.304 157.77 222.478 153.587C220.652 149.404 219.739 144.494 219.739 138.856C219.739 134.673 220.287 129.763 221.382 124.125L220.287 124.397L219.191 124.807C217.821 125.261 216.726 125.489 215.904 125.489C214.626 125.489 213.621 125.17 212.891 124.534C212.16 123.897 211.795 123.079 211.795 122.079C211.795 120.896 212.252 119.76 213.165 118.668C214.169 117.486 215.63 116.532 217.547 115.804L224.258 113.212C225.08 110.666 226.313 107.347 227.956 103.255C230.513 97.6171 233.708 92.7521 237.543 88.66C241.378 84.568 245.898 81.9309 251.102 80.7487Z" fill="#EB5B5B"/>
</svg>
